<svg width="96" height="96" viewBox="0 0 96 96" fill="none" xmlns="http://www.w3.org/2000/svg">
<circle cx="48" cy="48" r="48" fill="white"/>
<rect width="18" height="6" transform="matrix(0 -1 -1 0 78 36)" fill="black"/>
<rect width="18" height="6" transform="matrix(1 0 0 -1 60 36)" fill="black"/>
<rect width="18" height="6" transform="matrix(0 -1 -1 0 78 57)" fill="black"/>
<rect width="18" height="6" transform="matrix(1 0 0 -1 60 57)" fill="black"/>
<rect width="18" height="6" transform="matrix(0 -1 -1 0 78 78)" fill="black"/>
<rect width="18" height="6" transform="matrix(1 0 0 -1 60 78)" fill="black"/>
<rect width="18" height="6" transform="matrix(0 -1 -1 0 57 36)" fill="black"/>
<rect width="18" height="6" transform="matrix(1 0 0 -1 39 36)" fill="black"/>
<rect width="18" height="6" transform="matrix(0 -1 -1 0 57 57)" fill="black"/>
<rect width="18" height="6" transform="matrix(1 0 0 -1 39 57)" fill="black"/>
<rect width="18" height="6" transform="matrix(0 -1 -1 0 57 78)" fill="black"/>
<rect width="18" height="6" transform="matrix(1 0 0 -1 39 78)" fill="black"/>
<rect width="18" height="6" transform="matrix(0 -1 -1 0 36 36)" fill="black"/>
<rect width="18" height="6" transform="matrix(1 0 0 -1 18 36)" fill="black"/>
<rect width="18" height="6" transform="matrix(0 -1 -1 0 36 57)" fill="black"/>
<rect width="18" height="6" transform="matrix(1 0 0 -1 18 57)" fill="black"/>
<rect width="18" height="6" transform="matrix(0 -1 -1 0 36 78)" fill="black"/>
<rect width="18" height="6" transform="matrix(1 0 0 -1 18 78)" fill="black"/>
<rect width="18" height="6" transform="matrix(0 -1 -1 0 78 36)" fill="black"/>
<rect width="18" height="6" transform="matrix(1 0 0 -1 60 36)" fill="black"/>
<rect width="18" height="6" transform="matrix(0 -1 -1 0 78 57)" fill="black"/>
<rect width="18" height="6" transform="matrix(1 0 0 -1 60 57)" fill="black"/>
<rect width="18" height="6" transform="matrix(0 -1 -1 0 78 78)" fill="black"/>
<rect width="18" height="6" transform="matrix(1 0 0 -1 60 78)" fill="black"/>
<rect width="18" height="6" transform="matrix(0 -1 -1 0 57 36)" fill="black"/>
<rect width="18" height="6" transform="matrix(1 0 0 -1 39 36)" fill="black"/>
<rect width="18" height="6" transform="matrix(0 -1 -1 0 57 57)" fill="black"/>
<rect width="18" height="6" transform="matrix(1 0 0 -1 39 57)" fill="black"/>
<rect width="18" height="6" transform="matrix(0 -1 -1 0 57 78)" fill="black"/>
<rect width="18" height="6" transform="matrix(1 0 0 -1 39 78)" fill="black"/>
<rect width="18" height="6" transform="matrix(0 -1 -1 0 36 36)" fill="black"/>
<rect width="18" height="6" transform="matrix(1 0 0 -1 18 36)" fill="black"/>
<rect width="18" height="6" transform="matrix(0 -1 -1 0 36 57)" fill="black"/>
<rect width="18" height="6" transform="matrix(1 0 0 -1 18 57)" fill="black"/>
<rect width="18" height="6" transform="matrix(0 -1 -1 0 36 78)" fill="black"/>
<rect width="18" height="6" transform="matrix(1 0 0 -1 18 78)" fill="black"/>
</svg>
