<svg width="150" height="150" viewBox="0 0 150 150" fill="none" xmlns="http://www.w3.org/2000/svg">
<circle cx="75" cy="75" r="75" fill="white"/>
<path d="M64 86H94L87 93H57L64 86Z" fill="#262626"/>
<path d="M94 56H124L117 63H87L94 56Z" fill="#262626"/>
<path d="M34 56H64L57 63H27L34 56Z" fill="#262626"/>
<path d="M57 63V93L64 86V56L57 63Z" fill="#181818"/>
<path d="M87 93V123L94 116V86L87 93Z" fill="#181818"/>
<path d="M117 63V93L124 86V56L117 63Z" fill="#181818"/>
<rect x="57" y="33" width="30" height="30" fill="black"/>
<rect x="57" y="93" width="30" height="30" fill="black"/>
<rect x="27" y="63" width="30" height="30" fill="black"/>
<rect x="87" y="63" width="30" height="30" fill="black"/>
<path d="M64 26H94L87 33H57L64 26Z" fill="#262626"/>
<path d="M87 33V63L94 56V26L87 33Z" fill="#181818"/>
</svg>
