<svg width="150" height="150" viewBox="0 0 150 150" fill="none" xmlns="http://www.w3.org/2000/svg">
<circle cx="75" cy="75" r="75" fill="white"/>
<path d="M34 86H64L57 93H27L34 86Z" fill="#262626"/>
<path d="M94 86H124L117 93H87L94 86Z" fill="#262626"/>
<path d="M64 56H94L87 63H57L64 56Z" fill="#262626"/>
<path d="M57 93V123L64 116V86L57 93Z" fill="#181818"/>
<path d="M87 63V93L94 86V56L87 63Z" fill="#181818"/>
<path d="M117 93V123L124 116V86L117 93Z" fill="#181818"/>
<rect x="27" y="33" width="30" height="30" fill="black"/>
<rect x="57" y="63" width="30" height="30" fill="black"/>
<rect x="87" y="93" width="30" height="30" fill="black"/>
<rect x="27" y="93" width="30" height="30" fill="black"/>
<rect x="87" y="33" width="30" height="30" fill="black"/>
<path d="M34 26H64L57 33H27L34 26Z" fill="#262626"/>
<path d="M94 26H124L117 33H87L94 26Z" fill="#262626"/>
<path d="M57 33V63L64 56V26L57 33Z" fill="#181818"/>
<path d="M117 33V63L124 56V26L117 33Z" fill="#181818"/>
</svg>
