<svg width="97" height="97" viewBox="0 0 97 97" fill="none" xmlns="http://www.w3.org/2000/svg">
<path d="M7 60H37L30 67H0L7 60Z" fill="#262626"/>
<path d="M67 60H97L90 67H60L67 60Z" fill="#262626"/>
<path d="M37 30H67L60 37H30L37 30Z" fill="#262626"/>
<path d="M30 67V97L37 90V60L30 67Z" fill="#181818"/>
<path d="M60 37V67L67 60V30L60 37Z" fill="#181818"/>
<path d="M90 67V97L97 90V60L90 67Z" fill="#181818"/>
<rect y="7" width="30" height="30" fill="black"/>
<rect x="30" y="37" width="30" height="30" fill="black"/>
<rect x="60" y="67" width="30" height="30" fill="black"/>
<rect y="67" width="30" height="30" fill="black"/>
<rect x="60" y="7" width="30" height="30" fill="black"/>
<path d="M7 0H37L30 7H0L7 0Z" fill="#262626"/>
<path d="M67 0H97L90 7H60L67 0Z" fill="#262626"/>
<path d="M30 7V37L37 30V0L30 7Z" fill="#181818"/>
<path d="M90 7V37L97 30V0L90 7Z" fill="#181818"/>
</svg>
