<svg width="60" height="60" viewBox="0 0 60 60" fill="none" xmlns="http://www.w3.org/2000/svg">
<rect width="18" height="6" transform="matrix(0 -1 -1 0 60 18)" fill="black"/>
<rect width="18" height="6" transform="matrix(1 0 0 -1 42 18)" fill="black"/>
<rect width="18" height="6" transform="matrix(0 -1 -1 0 60 39)" fill="black"/>
<rect width="18" height="6" transform="matrix(1 0 0 -1 42 39)" fill="black"/>
<rect width="18" height="6" transform="matrix(0 -1 -1 0 60 60)" fill="black"/>
<rect width="18" height="6" transform="matrix(1 0 0 -1 42 60)" fill="black"/>
<rect width="18" height="6" transform="matrix(0 -1 -1 0 39 18)" fill="black"/>
<rect width="18" height="6" transform="matrix(1 0 0 -1 21 18)" fill="black"/>
<rect width="18" height="6" transform="matrix(0 -1 -1 0 39 39)" fill="black"/>
<rect width="18" height="6" transform="matrix(1 0 0 -1 21 39)" fill="black"/>
<rect width="18" height="6" transform="matrix(0 -1 -1 0 39 60)" fill="black"/>
<rect width="18" height="6" transform="matrix(1 0 0 -1 21 60)" fill="black"/>
<rect width="18" height="6" transform="matrix(0 -1 -1 0 18 18)" fill="black"/>
<rect width="18" height="6" transform="matrix(1 0 0 -1 0 18)" fill="black"/>
<rect width="18" height="6" transform="matrix(0 -1 -1 0 18 39)" fill="black"/>
<rect width="18" height="6" transform="matrix(1 0 0 -1 0 39)" fill="black"/>
<rect width="18" height="6" transform="matrix(0 -1 -1 0 18 60)" fill="black"/>
<rect width="18" height="6" transform="matrix(1 0 0 -1 0 60)" fill="black"/>
</svg>
